<svg width="335" height="86" viewBox="0 0 335 86" fill="none" xmlns="http://www.w3.org/2000/svg">
<g filter="url(#filter0_d_15_23)">
<path d="M14.3086 73H0.294922V2.98047H14.3086V37.9902L40.3828 2.98047H56.3008L34.1816 32.5215L56.3008 73H40.3828L25.002 44.6797L14.3086 58.9863V73ZM104.006 45.0215V31.0078C104.006 29.0872 103.632 27.2806 102.883 25.5879C102.167 23.8626 101.174 22.3652 99.9043 21.0957C98.6348 19.8262 97.1374 18.8333 95.4121 18.1172C93.7194 17.3685 91.9128 16.9941 89.9922 16.9941C88.0716 16.9941 86.2487 17.3685 84.5234 18.1172C82.8307 18.8333 81.3496 19.8262 80.0801 21.0957C78.8105 22.3652 77.8014 23.8626 77.0527 25.5879C76.3366 27.2806 75.9785 29.0872 75.9785 31.0078V45.0215H104.006ZM118.02 73H104.006V58.9863H75.9785V73H62.0137V31.0078C62.0137 27.1341 62.7461 23.5046 64.2109 20.1191C65.6758 16.7012 67.6615 13.7227 70.168 11.1836C72.707 8.64453 75.6693 6.64258 79.0547 5.17773C82.4727 3.71289 86.1185 2.98047 89.9922 2.98047C93.8659 2.98047 97.4954 3.71289 100.881 5.17773C104.299 6.64258 107.277 8.64453 109.816 11.1836C112.355 13.7227 114.357 16.7012 115.822 20.1191C117.287 23.5046 118.02 27.1341 118.02 31.0078V73ZM199.66 52.9805C199.66 55.8776 199.107 58.612 198 61.1836C196.926 63.7227 195.428 65.9525 193.508 67.873C191.62 69.7611 189.39 71.2585 186.818 72.3652C184.279 73.4395 181.561 73.9766 178.664 73.9766C176.06 73.9766 173.553 73.5208 171.145 72.6094C168.768 71.6979 166.62 70.3633 164.699 68.6055C162.779 70.3633 160.614 71.6979 158.205 72.6094C155.796 73.5208 153.29 73.9766 150.686 73.9766C147.788 73.9766 145.054 73.4395 142.482 72.3652C139.943 71.2585 137.714 69.7611 135.793 67.873C133.905 65.9525 132.408 63.7227 131.301 61.1836C130.227 58.612 129.689 55.8776 129.689 52.9805V2.98047H143.703V52.9805C143.703 53.957 143.882 54.8848 144.24 55.7637C144.598 56.61 145.087 57.3587 145.705 58.0098C146.356 58.6283 147.105 59.1165 147.951 59.4746C148.798 59.8327 149.709 60.0117 150.686 60.0117C151.662 60.0117 152.574 59.8327 153.42 59.4746C154.266 59.1165 154.999 58.6283 155.617 58.0098C156.268 57.3587 156.773 56.61 157.131 55.7637C157.489 54.8848 157.668 53.957 157.668 52.9805V2.98047H171.682V52.9805C171.682 53.957 171.861 54.8848 172.219 55.7637C172.577 56.61 173.065 57.3587 173.684 58.0098C174.335 58.6283 175.083 59.1165 175.93 59.4746C176.776 59.8327 177.688 60.0117 178.664 60.0117C179.641 60.0117 180.552 59.8327 181.398 59.4746C182.245 59.1165 182.977 58.6283 183.596 58.0098C184.247 57.3587 184.751 56.61 185.109 55.7637C185.5 54.8848 185.695 53.957 185.695 52.9805V2.98047H199.66V52.9805ZM253.42 45.0215V31.0078C253.42 29.0872 253.046 27.2806 252.297 25.5879C251.581 23.8626 250.588 22.3652 249.318 21.0957C248.049 19.8262 246.551 18.8333 244.826 18.1172C243.133 17.3685 241.327 16.9941 239.406 16.9941C237.486 16.9941 235.663 17.3685 233.938 18.1172C232.245 18.8333 230.764 19.8262 229.494 21.0957C228.225 22.3652 227.215 23.8626 226.467 25.5879C225.751 27.2806 225.393 29.0872 225.393 31.0078V45.0215H253.42ZM267.434 73H253.42V58.9863H225.393V73H211.428V31.0078C211.428 27.1341 212.16 23.5046 213.625 20.1191C215.09 16.7012 217.076 13.7227 219.582 11.1836C222.121 8.64453 225.083 6.64258 228.469 5.17773C231.887 3.71289 235.533 2.98047 239.406 2.98047C243.28 2.98047 246.91 3.71289 250.295 5.17773C253.713 6.64258 256.691 8.64453 259.23 11.1836C261.77 13.7227 263.771 16.7012 265.236 20.1191C266.701 23.5046 267.434 27.1341 267.434 31.0078V73ZM293.605 73H279.592V2.98047H293.605V73ZM320.656 73H306.643V2.98047H320.656V73Z" fill="#FC76FF"/>
</g>
<defs>
<filter id="filter0_d_15_23" x="0.294922" y="0.980469" width="334.361" height="84.9961" filterUnits="userSpaceOnUse" color-interpolation-filters="sRGB">
<feFlood flood-opacity="0" result="BackgroundImageFix"/>
<feColorMatrix in="SourceAlpha" type="matrix" values="0 0 0 0 0 0 0 0 0 0 0 0 0 0 0 0 0 0 127 0" result="hardAlpha"/>
<feOffset dx="7" dy="5"/>
<feGaussianBlur stdDeviation="3.5"/>
<feComposite in2="hardAlpha" operator="out"/>
<feColorMatrix type="matrix" values="0 0 0 0 0 0 0 0 0 0 0 0 0 0 0 0 0 0 0.4 0"/>
<feBlend mode="normal" in2="BackgroundImageFix" result="effect1_dropShadow_15_23"/>
<feBlend mode="normal" in="SourceGraphic" in2="effect1_dropShadow_15_23" result="shape"/>
</filter>
</defs>
</svg>
